<?xml version="1.0" encoding="UTF-8"?>
<svg width="53.978mm" height="39.577mm" version="1.1" viewBox="0 0 53.978 39.577" xmlns="http://www.w3.org/2000/svg">
 <g transform="translate(-73.553 -113.26)">
  <path d="m108.38 129.37h-1.3123v1.3144h1.3123zm-14.813 2.4691h-1.3159v1.3144h1.3159zm0 1.8831h-1.3159v1.3144h1.3159zm0 1.954h-1.3159v1.3141h1.3159zm0-5.8088h-1.3159v1.3144h1.3159zm8.3644-6.2354h-1.3123v1.3144h1.3123zm0 1.972h-1.3123v1.3144h1.3123zm0 1.8828h-1.3123v1.3148h1.3123zm0 1.954h-1.3123v1.3144h1.3123zm0 1.972h-1.3123v1.3144h1.3123zm0 1.8828h-1.3123v1.3148h1.3123zm0 1.954h-1.3123v1.3144h1.3123zm6.4488-0.0709h-1.3123v1.3148h1.3123zm0-1.8831h-1.3123v1.3148h1.3123zm0-1.9717h-1.3123v1.3144h1.3123v-1.3144" fill="#fff" fill-rule="evenodd"/>
  <path d="m105.01 113.59h-2.3424v2.3435h2.3424v-0.63853h7.6906c0.39159 0 0.71261 0.31962 0.71261 0.71085v21.28c0 0.39123-0.32102 0.7112-0.71261 0.7112h-1.6863v-9.9914l-1.1007-0.43533-4.9742-1.9674v12.394h-0.92428v-17.897l-2.7834 1.101-2.1555 0.85195-1.1007 0.43568v15.508h-0.85373v-10.409h-6.7486v10.409h-1.4922c-0.39159 0-0.71262-0.31997-0.71262-0.7112v-21.28c0-0.39123 0.32103-0.71085 0.71262-0.71085h4.9883v-1.0661h-4.9883c-0.9772 0-1.778 0.7994-1.778 1.777v21.28c0 0.97755 0.8008 1.7769 1.778 1.7769h2.5929v-10.374h4.5473v10.374h3.055v-15.765l3.8382-1.518v17.283h3.1256v-11.78l3.8735 1.5318v10.248h2.7869c0.9772 0 1.778-0.79939 1.778-1.7769v-21.28c0-0.97755-0.8008-1.777-1.778-1.777h-7.6906v-0.63888" fill="#f60" fill-rule="evenodd"/>
  <g transform="matrix(.35278 0 0 -.35278 -277.32 295.15)">
   <text transform="matrix(1 0 0 -1 993.23 418.24)" fill="#ffffff" font-family="'AvantGarde Bk BT'" font-size="20.893px" font-weight="bold"><tspan x="0 14.311911 27.767195 32.656227 46.111511 58.292309 71.747589 77.827545 93.539307 106.99459 120.44987 125.33891 130.22794 142.40874" y="0">Dalpha Cabling</tspan></text>
  </g>
  <g transform="matrix(.35278 0 0 -.35278 -277.32 295.15)">
   <text transform="matrix(1 0 0 -1 1018.3 403.58)" fill="#ff6600" font-family="'AvantGarde Bk BT'" font-size="10.928px"><tspan x="0 6.0760794 8.0540838 11.135836 13.11384 19.211775 23.462845 26.446243 33.331009 35.309013 37.287018 43.909508 46.641556 53.526325 56.258373 59.340126 62.345383 65.077431 71.962196 82.136353 85.119751 87.097755 93.982521 100.60501" y="0">Vi installerar framtiden</tspan></text>
  </g>
  <path d="m95.983 115.13h1.1889v1.1014l-0.24694 0.0356-1.0724-0.21307-0.22225-0.0441v-0.87983h-0.22225v0.83573l-0.21872-0.0437v-0.79199h-0.22225v0.74789l-0.22225-0.0441v-0.70379h-0.22225v0.6597l-0.21872-0.0438v-0.61595h-0.22225v0.57185l-0.29986-0.0596v-1.7586l0.29986-0.0593v0.5715h0.22225v-0.6156l0.21872-0.0441v0.65969h0.22225v-0.70379l0.22225-0.0438v0.74754h0.22225v-0.79163l0.21872-0.0441v0.83573h0.22225v-0.87983l0.22225-0.0437 1.0724-0.21343 0.24694 0.0356v1.1014h-1.1889v0.36724zm2.8575-0.5849v-0.29916h-1.1359l-0.0811 0.29598h-1.4005l4e-3 0.22119-4e-3 0.22119h1.4005l0.0811 0.29598h1.1359v-0.58523zm0.84667 0h-0.73731v0.14993h0.73731zm0-0.29916h-0.73731v0.14958h0.73731zm0-0.29986h-0.73731v0.14993h0.73731zm-0.73731-0.14182h0.73731v-0.2921h-2.3989v0.88371h0.22225l0.0388-0.14993 0.0423-0.14993h1.2488v-0.29175zm0.73731 1.1765h-0.73731v-0.14993h0.73731zm0 0.2995h-0.73731v-0.14993h0.73731zm0 0.29951h-0.73731v-0.14958h0.73731zm-0.73731 0.14217h0.73731v0.29175h-2.3989v-0.88371h0.22225l0.0388 0.15028 0.0423 0.14993h1.2488v0.29175h0.10936" fill="#f60" fill-rule="evenodd"/>
 </g>
</svg>
