<svg viewBox="0 0 328.04 92.383" xmlns="http://www.w3.org/2000/svg" xmlns:xlink="http://www.w3.org/1999/xlink"><g data-name="Lager 1" transform="translate(-129.2 -326.74)"><symbol id="a"><path d="M.583.757V.018H.461v.075H.46a.178.178 0 00-.048-.05A.241.241 0 00.275 0a.251.251 0 00-.11.024.28.28 0 00-.09.068.306.306 0 00-.075.2.296.296 0 00.133.252A.276.276 0 00.28.59.243.243 0 00.401.556a.206.206 0 00.05-.04v.24h.132M.459.297A.157.157 0 01.446.36a.159.159 0 01-.088.087.162.162 0 01-.065.013.162.162 0 01-.111-.048A.154.154 0 01.133.3C.133.269.14.24.154.215A.155.155 0 01.295.13a.161.161 0 01.142.083.163.163 0 01.022.083z"/></symbol><symbol id="b"><path d="M.585.572V.018H.463v.075H.461A.213.213 0 00.378.025.238.238 0 00.273 0 .267.267 0 00.07.093.304.304 0 000 .295C0 .32.002.344.007.367A.267.267 0 00.07.494C.1.527.131.551.165.566A.27.27 0 00.277.59.218.218 0 00.463.494v.078h.122M.46.296A.176.176 0 01.447.36a.146.146 0 01-.083.086.163.163 0 01-.065.013.16.16 0 01-.12-.048A.168.168 0 01.134.29C.133.245.15.207.182.176A.161.161 0 01.297.13C.33.13.357.137.381.15a.15.15 0 01.057.06C.452.236.46.265.46.296z"/></symbol><symbol id="c"><path d="M0 0v.739h.133V0z"/></symbol><symbol id="d"><path d="M0 0v.74h.122V.666h.002c.04.06.1.09.178.09a.255.255 0 00.201-.09.276.276 0 00.068-.13A.331.331 0 00.56.352.274.274 0 00.302.167a.2.2 0 00-.167.078H.133V0H0m.288.627A.16.16 0 01.125.462.157.157 0 01.228.308.15.15 0 01.283.297a.162.162 0 01.164.166.164.164 0 01-.021.08.157.157 0 01-.138.084z"/></symbol><symbol id="e"><path d="M0 0v.739h.133V.512c.014.02.035.035.06.045a.216.216 0 00.17-.005A.21.21 0 00.44.498.189.189 0 00.473.44.241.241 0 00.488.378.849.849 0 00.49.3V0H.358v.271A.42.42 0 01.35.358a.11.11 0 01-.032.06C.3.434.277.442.245.442A.103.103 0 01.154.394.137.137 0 01.136.341.642.642 0 01.133.269V0z"/></symbol><g fill="#4eae32"><use transform="matrix(100 0 0 -100 129.2 402.42)" width="100%" height="100%" xlink:href="#a"/><use transform="matrix(100 0 0 -100 192.7 402.42)" width="100%" height="100%" xlink:href="#b"/><use transform="matrix(100 0 0 -100 258.65 400.62)" width="100%" height="100%" xlink:href="#c"/><use transform="matrix(100 0 0 -100 280.15 419.12)" width="100%" height="100%" xlink:href="#d"/><use transform="matrix(100 0 0 -100 343.65 400.62)" width="100%" height="100%" xlink:href="#e"/><use transform="matrix(100 0 0 -100 398.7 402.42)" width="100%" height="100%" xlink:href="#b"/></g></g></svg>