<?xml version="1.0" encoding="UTF-8"?>
<svg width="53.978mm" height="39.577mm" version="1.1" viewBox="0 0 53.978 39.577" xmlns="http://www.w3.org/2000/svg"><path d="m34.831 16.107h-1.3144v1.3144h1.3144zm-14.815 2.4691h-1.3144v1.3144h1.3144zm0 1.8831h-1.3144v1.3144h1.3144zm0 1.954h-1.3144v1.3141h1.3144zm0-5.8088h-1.3144v1.3144h1.3144zm8.3672-6.2354h-1.3148v1.3144h1.3148zm0 1.972h-1.3148v1.3144h1.3148zm0 1.8828h-1.3148v1.3148h1.3148zm0 1.954h-1.3148v1.3144h1.3148zm0 1.972h-1.3148v1.3144h1.3148zm0 1.8828h-1.3148v1.3148h1.3148zm0 1.954h-1.3148v1.3144h1.3148zm6.4481-0.0709h-1.3144v1.3148h1.3144zm0-1.8831h-1.3144v1.3148h1.3144zm0-1.9717h-1.3144v1.3144h1.3144v-1.3144" fill="#333" fill-rule="evenodd"/><path d="m31.455 0.3324h-2.3435v2.3435h2.3435v-0.63853h7.6898c0.39124 0 0.7112 0.31962 0.7112 0.71085v21.28c0 0.39123-0.31996 0.7112-0.7112 0.7112h-1.6852v-9.9914l-1.1014-0.43533-3.8728-1.5321-1.1014-0.43532v12.394h-0.92499v-17.897l-2.7845 1.101-2.1541 0.85195-1.101 0.43568v15.508h-0.85267v-10.409h-6.7504v10.409h-1.4922c-0.39123 0-0.71085-0.31997-0.71085-0.7112v-21.28c0-0.39123 0.31962-0.71085 0.71085-0.71085h4.9886v-1.0661h-4.9886c-0.97755 0-1.7769 0.7994-1.7769 1.777v21.28c0 0.97755 0.79939 1.7769 1.7769 1.7769h2.5933v-10.374h4.548v10.374h3.0551v-15.765l3.8375-1.518v17.283h3.1274v-11.78l3.8728 1.5318v10.248h2.7866c0.97754 0 1.7769-0.79939 1.7769-1.7769v-21.28c0-0.97755-0.7994-1.777-1.7769-1.777h-7.6898v-0.63888" fill="#f60" fill-rule="evenodd"/><g fill="#333" stroke-width=".35278"><path d="m0.50521 29.603v4.2467h1.0689q1.0005 0 1.5403-0.56143 0.53984-0.56144 0.53984-1.5907 0-0.51465-0.18355-0.95012-0.18355-0.43547-0.52545-0.73058-0.25552-0.22314-0.57223-0.31671-0.31671-0.097171-0.92133-0.097171zm-0.50745-0.50025h1.49q0.61542 0 1.0329 0.12236 0.42108 0.12236 0.74138 0.39228 0.44987 0.37789 0.69819 0.92493 0.24833 0.54704 0.24833 1.1697 0 0.6946-0.27352 1.2668-0.27352 0.56863-0.77377 0.92853-0.3311 0.23393-0.71619 0.3347-0.38509 0.10077-1.1877 0.10077h-1.2596z"/><path d="m8.311 32.339q0-0.62981-0.44987-1.0977-0.44987-0.47146-1.0365-0.47146-0.63701 0-1.0869 0.47146-0.44627 0.46786-0.44627 1.1625 0 0.6622 0.44627 1.1193 0.44627 0.45347 1.0725 0.45347 0.60462 0 1.0509-0.47866 0.44987-0.48226 0.44987-1.1589zm0 1.3784q-0.23753 0.3419-0.64421 0.53624-0.40308 0.19434-0.87094 0.19434-0.87094 0-1.4504-0.59382-0.57943-0.59742-0.57943-1.472 0-0.88894 0.59023-1.4864 0.59383-0.59742 1.4828-0.59742 0.45707 0 0.83855 0.18714 0.38149 0.18355 0.63341 0.53264v-0.63341h0.49665v3.9588h-0.49665z"/><path d="m9.7215 34.343v-5.2401h0.50745v5.2401z"/><path d="m11.425 30.384h0.50025v0.64781q0.21594-0.3347 0.61542-0.53264 0.40308-0.20154 0.85655-0.20154 0.89614 0 1.4828 0.59742 0.59023 0.59382 0.59023 1.4864 0 0.87094-0.58303 1.4684-0.57943 0.59742-1.4504 0.59742-0.48226 0-0.87094-0.18714-0.38509-0.18714-0.64061-0.54344v1.9074h-0.50025zm0.50025 1.9542q0 0.6766 0.44627 1.1589 0.44627 0.47866 1.0509 0.47866 0.62262 0 1.0689-0.45347 0.44627-0.45707 0.44627-1.1193 0-0.6946-0.44987-1.1625-0.44627-0.47146-1.0833-0.47146-0.58663 0-1.0329 0.47146-0.44627 0.47146-0.44627 1.0977z"/><path d="m16.179 29.103h0.50025v1.7455q0.21954-0.26992 0.52544-0.40668 0.30951-0.13676 0.691-0.13676 0.83496 0 1.2164 0.47866 0.38149 0.47506 0.38149 1.5475v2.0118h-0.50025v-2.019q0-0.86015-0.25912-1.1948-0.25912-0.3383-0.86734-0.3383-0.3455 0-0.60822 0.14036-0.25912 0.13676-0.41028 0.39588-0.09357 0.16195-0.13316 0.37069-0.03599 0.20514-0.03599 0.71979v1.9254h-0.50025z"/><path d="m23.826 32.339q0-0.62981-0.44987-1.0977-0.44987-0.47146-1.0365-0.47146-0.63701 0-1.0869 0.47146-0.44627 0.46786-0.44627 1.1625 0 0.6622 0.44627 1.1193 0.44627 0.45347 1.0725 0.45347 0.60462 0 1.0509-0.47866 0.44987-0.48226 0.44987-1.1589zm0 1.3784q-0.23753 0.3419-0.64421 0.53624-0.40308 0.19434-0.87094 0.19434-0.87094 0-1.4504-0.59382-0.57943-0.59742-0.57943-1.472 0-0.88894 0.59023-1.4864 0.59383-0.59742 1.4828-0.59742 0.45706 0 0.83855 0.18714 0.38149 0.18355 0.63341 0.53264v-0.63341h0.49665v3.9588h-0.49665z"/><path d="m31.632 30.46q-0.3527-0.48946-0.78817-0.71979-0.43547-0.23033-0.99331-0.23033-0.87454 0-1.4972 0.64781-0.61902 0.64781-0.61902 1.5403 0 0.95012 0.61542 1.6015 0.61902 0.65141 1.5008 0.65141 0.54344 0 0.98251-0.22673 0.43907-0.22673 0.76298-0.6766h0.61182q-0.35989 0.6694-0.96452 1.0365-0.60462 0.36349-1.3568 0.36349-1.1553 0-1.929-0.78817-0.77017-0.78817-0.77017-1.9686 0-0.55064 0.20874-1.0437 0.20874-0.49305 0.61182-0.88894 0.37429-0.37429 0.83855-0.56503 0.46786-0.19434 1.0113-0.19434 0.78097 0 1.4036 0.38149 0.62622 0.38149 0.98971 1.0797z"/><path d="m36.261 32.339q0-0.62981-0.44987-1.0977-0.44987-0.47146-1.0365-0.47146-0.63701 0-1.0869 0.47146-0.44627 0.46786-0.44627 1.1625 0 0.6622 0.44627 1.1193 0.44627 0.45347 1.0725 0.45347 0.60462 0 1.0509-0.47866 0.44987-0.48226 0.44987-1.1589zm0 1.3784q-0.23753 0.3419-0.64421 0.53624-0.40308 0.19434-0.87094 0.19434-0.87094 0-1.4504-0.59382-0.57943-0.59742-0.57943-1.472 0-0.88894 0.59023-1.4864 0.59382-0.59742 1.4828-0.59742 0.45706 0 0.83855 0.18714 0.38149 0.18355 0.63341 0.53264v-0.63341h0.49665v3.9588h-0.49665z"/><path d="m38.15 29.103v1.947q0.32031-0.38509 0.70179-0.56863 0.38149-0.18355 0.85295-0.18355 0.83495 0 1.4108 0.60102 0.57943 0.60102 0.57943 1.4612 0 0.88894-0.59023 1.49-0.59023 0.59742-1.4828 0.59742-0.43907 0-0.80616-0.17275-0.36349-0.17635-0.6658-0.52904v0.59742h-0.50025v-5.2401zm0 3.3002q0 0.63341 0.44627 1.1049 0.44987 0.46786 1.0329 0.46786 0.63701 0 1.0833-0.47146 0.44987-0.47146 0.44987-1.1661 0-0.65861-0.44627-1.1121-0.44627-0.45707-1.0689-0.45707-0.62262 0-1.0617 0.47506-0.43547 0.47506-0.43547 1.1589z"/><path d="m42.418 34.343v-5.2401h0.50745v5.2401z"/><path d="m44.65 29.92h-0.50745v-0.81696h0.50745zm-0.50745 4.4231v-3.9588h0.50745v3.9588z"/><path d="m45.86 30.384h0.49306v0.44987q0.23393-0.26992 0.53984-0.39948 0.30951-0.12956 0.70539-0.12956 0.43547 0 0.77377 0.16195 0.3419 0.16195 0.53984 0.46426 0.13676 0.21234 0.19434 0.50025 0.06118 0.28432 0.06118 0.84215v2.0694h-0.50025v-2.2169q0-0.70179-0.26992-1.0185-0.26632-0.31671-0.85655-0.31671-0.3455 0-0.60822 0.14036-0.25912 0.13676-0.41028 0.39588-0.09357 0.16195-0.13316 0.37069-0.03599 0.20514-0.03599 0.71979v1.9254h-0.49306z"/><path d="m50.834 34.667q0.11517 0.3455 0.41748 0.53624 0.30231 0.19434 0.73418 0.19434 0.6766 0 1.0833-0.44987 0.41028-0.44987 0.41028-1.202v-0.10437q-0.28792 0.39228-0.65501 0.59382-0.36709 0.19794-0.80976 0.19794-0.89254 0-1.4828-0.59383-0.59023-0.59742-0.59023-1.4864 0-0.87454 0.58303-1.4684 0.58303-0.59382 1.4432-0.59382 0.50025 0 0.86374 0.17995 0.36709 0.17995 0.64781 0.56144v-0.64781h0.49665v3.3038q0 1.0365-0.52185 1.6195-0.51825 0.58303-1.4324 0.58303-0.673 0-1.1553-0.3347-0.48226-0.3311-0.62262-0.88894zm-0.3527-2.3357q0 0.6946 0.43907 1.1625 0.44267 0.46786 1.0653 0.46786 0.58663 0 1.0365-0.46786 0.44987-0.47146 0.44987-1.1049 0-0.6766-0.44267-1.1553t-1.0437-0.47866q-0.61902 0-1.0617 0.45706-0.44267 0.45347-0.44267 1.1193z"/></g><g fill="#f60"><g stroke-width=".35278"><path d="m8.2754 36.774h0.26918l0.86779 2.3361 0.87156-2.3361h0.26918l-1.0316 2.7408h-0.21271z"/><path d="m10.978 37.201h-0.26542v-0.42731h0.26542zm-0.26542 2.3135v-2.0707h0.26542v2.0707z"/><path d="m12.763 37.201h-0.26542v-0.42731h0.26542zm-0.26542 2.3135v-2.0707h0.26542v2.0707z"/><path d="m13.192 37.444h0.25789v0.2353q0.12236-0.14118 0.28236-0.20895 0.16189-0.06777 0.36895-0.06777 0.22777 0 0.40472 0.08471 0.17883 0.08471 0.28236 0.24283 0.07153 0.11106 0.10165 0.26166 0.032 0.14871 0.032 0.44048v1.0824h-0.26166v-1.1596q0-0.36707-0.14118-0.53272-0.1393-0.16565-0.44801-0.16565-0.18071 0-0.31813 0.07341-0.13553 0.07153-0.2146 0.20706-0.04894 0.08471-0.06965 0.19389-0.01882 0.1073-0.01882 0.37648v1.0071h-0.25789z"/><path d="m15.211 38.864h0.27295v0.0075q0 0.19389 0.11106 0.32189 0.11106 0.12612 0.27483 0.12612 0.15624 0 0.25977-0.09788 0.10353-0.09789 0.10353-0.2466 0-0.14871-0.08283-0.23907-0.08094-0.09036-0.29554-0.16942-0.34448-0.12236-0.4499-0.25036t-0.10542-0.3426q0-0.24283 0.17506-0.41225 0.17695-0.16942 0.42731-0.16942 0.26542 0 0.42166 0.15059t0.16753 0.41978h-0.28424q-0.0094-0.14683-0.09412-0.22777-0.08283-0.08094-0.22777-0.08094-0.12989 0-0.21648 0.08847-0.08659 0.08659-0.08659 0.21648 0 0.09224 0.03577 0.15624 0.03577 0.06212 0.11859 0.11294 0.0753 0.04706 0.21836 0.09036 0.14495 0.0433 0.19389 0.064 0.19389 0.08283 0.28424 0.22024 0.09224 0.13742 0.09224 0.35013 0 0.2673-0.18636 0.44237-0.18636 0.17506-0.47248 0.17506-0.29177 0-0.46872-0.19012-0.17695-0.19201-0.18636-0.51578z"/><path d="m17.023 39.515v-1.8034h-0.39342v-0.2673h0.39342v-0.67014h0.26542v0.67014h0.39342v0.2673h-0.39342v1.8034z"/><path d="m19.644 38.466q0-0.32942-0.2353-0.57414-0.2353-0.2466-0.54214-0.2466-0.33319 0-0.56849 0.2466-0.23342 0.24471-0.23342 0.60802 0 0.34636 0.23342 0.58543 0.23342 0.23718 0.56096 0.23718 0.31624 0 0.54966-0.25036 0.2353-0.25224 0.2353-0.60614zm0 0.72096q-0.12424 0.17883-0.33695 0.28048-0.21083 0.10165-0.45554 0.10165-0.45554 0-0.75861-0.3106-0.30307-0.31248-0.30307-0.76991 0-0.46496 0.30872-0.77744 0.3106-0.31248 0.77555-0.31248 0.23907 0 0.4386 0.09788 0.19954 0.096 0.3313 0.2786v-0.3313h0.25977v2.0707h-0.25977z"/><path d="m20.328 39.515v-2.7408h0.26542v2.7408z"/><path d="m21.025 39.515v-2.7408h0.26542v2.7408z"/><path d="m23.751 38.562h-1.8692q0.02447 0.33883 0.24471 0.54778 0.22024 0.20895 0.54966 0.20895 0.23342 0 0.41978-0.12047 0.18636-0.12236 0.28801-0.33884h0.30119q-0.14306 0.34448-0.40284 0.52896-0.25789 0.18448-0.59861 0.18448-0.45178 0-0.76426-0.32189-0.31248-0.32189-0.31248-0.77367 0-0.47249 0.30495-0.7812 0.30683-0.30872 0.78308-0.30872 0.46684 0 0.76049 0.32189 0.29554 0.32001 0.29554 0.83391zm-0.29366-0.22401q-0.0753-0.34825-0.27671-0.52331-0.20142-0.17695-0.52519-0.17695-0.30119 0-0.51013 0.19012-0.20895 0.18824-0.25601 0.51013z"/><path d="m24.321 39.515h-0.26918v-2.0707h0.25036v0.23907q0.09788-0.13742 0.21271-0.20142 0.11671-0.064 0.27107-0.06777l0.0019 0.28801q-0.25036 0.02259-0.35954 0.15059-0.1073 0.12612-0.1073 0.41225z"/><path d="m26.768 38.466q0-0.32942-0.2353-0.57414-0.2353-0.2466-0.54214-0.2466-0.33319 0-0.56849 0.2466-0.23342 0.24471-0.23342 0.60802 0 0.34636 0.23342 0.58543 0.23342 0.23718 0.56096 0.23718 0.31624 0 0.54966-0.25036 0.2353-0.25224 0.2353-0.60614zm0 0.72096q-0.12424 0.17883-0.33695 0.28048-0.21083 0.10165-0.45554 0.10165-0.45554 0-0.75861-0.3106-0.30307-0.31248-0.30307-0.76991 0-0.46496 0.30872-0.77744 0.3106-0.31248 0.77555-0.31248 0.23907 0 0.4386 0.09788 0.19954 0.096 0.3313 0.2786v-0.3313h0.25977v2.0707h-0.25977z"/><path d="m27.714 39.515h-0.26918v-2.0707h0.25036v0.23907q0.09789-0.13742 0.21271-0.20142 0.11671-0.064 0.27107-0.06777l0.0019 0.28801q-0.25036 0.02259-0.35954 0.15059-0.1073 0.12612-0.1073 0.41225z"/><path d="m29.868 39.515h-0.25789v-1.8391h-0.27671v-0.23154h0.26542v-0.05647q0-0.32942 0.16565-0.48754 0.16754-0.15812 0.51202-0.15812h0.02447v0.23907q-0.23907 0.0038-0.33883 0.096-0.09789 0.09036-0.09789 0.3106v0.05647h0.43672v0.23154h-0.43295z"/><path d="m30.825 39.515h-0.26918v-2.0707h0.25036v0.23907q0.09788-0.13742 0.21271-0.20142 0.11671-0.064 0.27107-0.06777l0.0019 0.28801q-0.25036 0.02259-0.35954 0.15059-0.1073 0.12612-0.1073 0.41225z"/><path d="m33.272 38.466q0-0.32942-0.2353-0.57414-0.2353-0.2466-0.54214-0.2466-0.33319 0-0.56849 0.2466-0.23342 0.24471-0.23342 0.60802 0 0.34636 0.23342 0.58543 0.23342 0.23718 0.56096 0.23718 0.31624 0 0.54966-0.25036 0.2353-0.25224 0.2353-0.60614zm0 0.72096q-0.12424 0.17883-0.33695 0.28048-0.21083 0.10165-0.45554 0.10165-0.45554 0-0.75861-0.3106-0.30307-0.31248-0.30307-0.76991 0-0.46496 0.30872-0.77744 0.3106-0.31248 0.77555-0.31248 0.23907 0 0.4386 0.09788 0.19954 0.096 0.3313 0.2786v-0.3313h0.25977v2.0707h-0.25977z"/><path d="m35.579 37.768q0.12612-0.17883 0.31248-0.27107 0.18824-0.09412 0.41978-0.09412 0.42166 0 0.61367 0.25413 0.19201 0.25224 0.19201 0.8132v1.0447h-0.25413v-1.0993q0-0.41037-0.13553-0.58355-0.13553-0.17506-0.44237-0.17506-0.17695 0-0.31248 0.07341-0.13365 0.07153-0.21271 0.20706-0.04706 0.08471-0.06777 0.19389-0.02071 0.1073-0.02071 0.37648v1.0071h-0.25036v-1.1596q0-0.35766-0.14494-0.52708-0.14495-0.1713-0.44425-0.1713-0.18071 0-0.31813 0.07341-0.13553 0.07153-0.2146 0.20706-0.04894 0.08471-0.06965 0.19389-0.01882 0.1073-0.01882 0.37648v1.0071h-0.26166v-2.0707h0.26166v0.2353q0.11859-0.13742 0.2786-0.20706 0.16189-0.06965 0.36519-0.06965 0.2353 0 0.42919 0.09977 0.19389 0.09789 0.29554 0.26542z"/><path d="m37.722 39.515v-1.8034h-0.39342v-0.2673h0.39342v-0.67014h0.26542v0.67014h0.39342v0.2673h-0.39342v1.8034z"/><path d="m38.863 37.201h-0.26542v-0.42731h0.26542zm-0.26542 2.3135v-2.0707h0.26542v2.0707z"/><path d="m41.04 38.5q0-0.35389-0.2353-0.60426-0.23342-0.25036-0.54966-0.25036-0.32754 0-0.56096 0.23907-0.23342 0.23718-0.23342 0.58166 0 0.36331 0.23342 0.6099 0.2353 0.2466 0.56849 0.2466 0.30683 0 0.54214-0.2466 0.2353-0.2466 0.2353-0.57602zm-0.0075-0.72849v-0.99768h0.2673v2.7408h-0.2673v-0.31248q-0.1393 0.17318-0.34636 0.27107-0.20707 0.096-0.4386 0.096-0.44801 0-0.75485-0.31624-0.30683-0.31625-0.30683-0.77555 0-0.45554 0.30307-0.76614 0.30307-0.31248 0.75861-0.31248 0.24471 0 0.44425 0.096 0.20142 0.09412 0.34072 0.27671z"/><path d="m43.752 38.562h-1.8692q0.02447 0.33883 0.24471 0.54778 0.22024 0.20895 0.54966 0.20895 0.23342 0 0.41978-0.12047 0.18636-0.12236 0.28801-0.33884h0.30119q-0.14306 0.34448-0.40284 0.52896-0.25789 0.18448-0.59861 0.18448-0.45178 0-0.76426-0.32189-0.31248-0.32189-0.31248-0.77367 0-0.47249 0.30495-0.7812 0.30683-0.30872 0.78308-0.30872 0.46684 0 0.76049 0.32189 0.29554 0.32001 0.29554 0.83391zm-0.29366-0.22401q-0.0753-0.34825-0.27672-0.52331-0.20142-0.17695-0.52519-0.17695-0.30119 0-0.51013 0.19012-0.20895 0.18824-0.25601 0.51013z"/><path d="m44.057 37.444h0.25789v0.2353q0.12236-0.14118 0.28236-0.20895 0.16189-0.06777 0.36895-0.06777 0.22777 0 0.40472 0.08471 0.17883 0.08471 0.28236 0.24283 0.07153 0.11106 0.10165 0.26166 0.032 0.14871 0.032 0.44048v1.0824h-0.26166v-1.1596q0-0.36707-0.14118-0.53272-0.1393-0.16565-0.44801-0.16565-0.18071 0-0.31813 0.07341-0.13553 0.07153-0.2146 0.20706-0.04894 0.08471-0.06965 0.19389-0.01882 0.1073-0.01882 0.37648v1.0071h-0.25789z"/></g><path d="m22.43 1.8712h1.1889v1.1014l-0.24659 0.0356-1.0724-0.21307-0.2212-0.0441v-0.87983h-0.22189v0.83573l-0.2212-0.0437v-0.79199h-0.22119v0.74789l-0.22154-0.0441v-0.70379h-0.22155v0.6597l-0.22154-0.0438v-0.61595h-0.22119v0.57185l-0.2988-0.0596v-1.7586l0.2988-0.0593v0.5715h0.22119v-0.6156l0.22154-0.0441v0.65969h0.22155v-0.70379l0.22154-0.0438v0.74754h0.22119v-0.79163l0.2212-0.0441v0.83573h0.22189v-0.87983l0.2212-0.0437 1.0724-0.21343 0.24659 0.0356v1.1014h-1.1889v0.36724zm2.8586-0.5849v-0.29916h-1.1381l-0.0804 0.29598h-1.4008l4e-3 0.22119-4e-3 0.22119h1.4008l0.0804 0.29598h1.1381v-0.58523zm0.84455 0h-0.73448v0.14993h0.73448zm0-0.29916h-0.73448v0.14958h0.73448zm0-0.29986h-0.73448v0.14993h0.73448zm-0.73448-0.14182h0.73448v-0.2921h-2.3985v0.88371h0.2219l0.0409-0.14993 0.0406-0.14993h1.2506v-0.29175zm0.73448 1.1765h-0.73448v-0.14993h0.73448zm0 0.2995h-0.73448v-0.14993h0.73448zm0 0.29951h-0.73448v-0.14958h0.73448zm-0.73448 0.14217h0.73448v0.29175h-2.3985v-0.88371h0.2219l0.0409 0.15028 0.0406 0.14993h1.2506v0.29175h0.11007" fill-rule="evenodd"/></g></svg>
