<?xml version="1.0" encoding="UTF-8"?>
<svg width="53.978mm" height="39.577mm" version="1.1" viewBox="0 0 53.978 39.577" xmlns="http://www.w3.org/2000/svg">
 <g transform="translate(-3.2491 -2.8901)">
  <path d="m38.08 18.997h-1.3144v1.3144h1.3144zm-14.815 2.4691h-1.3144v1.3144h1.3144zm0 1.8831h-1.3144v1.3144h1.3144zm0 1.954h-1.3144v1.3141h1.3144zm0-5.8088h-1.3144v1.3144h1.3144zm8.3672-6.2354h-1.3148v1.3144h1.3148zm0 1.972h-1.3148v1.3144h1.3148zm0 1.8828h-1.3148v1.3148h1.3148zm0 1.954h-1.3148v1.3144h1.3148zm0 1.972h-1.3148v1.3144h1.3148zm0 1.8828h-1.3148v1.3148h1.3148zm0 1.954h-1.3148v1.3144h1.3148zm6.4481-0.0709h-1.3144v1.3148h1.3144zm0-1.8831h-1.3144v1.3148h1.3144zm0-1.9717h-1.3144v1.3144h1.3144v-1.3144" fill="#333" fill-rule="evenodd"/>
  <path d="m34.704 3.2225h-2.3435v2.3435h2.3435v-0.63853h7.6898c0.39124 0 0.7112 0.31962 0.7112 0.71085v21.28c0 0.39123-0.31996 0.7112-0.7112 0.7112h-1.6852v-9.9914l-1.1014-0.43533-3.8728-1.5321-1.1014-0.43532v12.394h-0.92499v-17.897l-2.7845 1.101-2.1541 0.85195-1.101 0.43568v15.508h-0.85267v-10.409h-6.7504v10.409h-1.4922c-0.39123 0-0.71085-0.31997-0.71085-0.7112v-21.28c0-0.39123 0.31962-0.71085 0.71085-0.71085h4.9886v-1.0661h-4.9886c-0.97755 0-1.7769 0.7994-1.7769 1.777v21.28c0 0.97755 0.79939 1.7769 1.7769 1.7769h2.5933v-10.374h4.548v10.374h3.0551v-15.765l3.8375-1.518v17.283h3.1274v-11.78l3.8728 1.5318v10.248h2.7866c0.97754 0 1.7769-0.79939 1.7769-1.7769v-21.28c0-0.97755-0.7994-1.777-1.7769-1.777h-7.6898v-0.63888" fill="#f60" fill-rule="evenodd"/>
  <g transform="matrix(.35278 0 0 -.35278 -239.68 184.78)">
   <text transform="matrix(1 0 0 -1 687.23 418.24)" fill="#333333" font-family="'AvantGarde Bk BT'" font-size="20.893px" font-weight="bold"><tspan x="0 14.311911 27.767195 32.656227 46.111511 58.292309 71.747589 77.827545 93.539307 106.99459 120.44987 125.33891 130.22794 142.40874" y="0">Dalpha Cabling</tspan></text>
  </g>
  <g transform="matrix(.35278 0 0 -.35278 -239.68 184.78)">
   <text transform="matrix(1 0 0 -1 712.29 403.58)" fill="#ff6600" font-family="'AvantGarde Bk BT'" font-size="10.928px"><tspan x="0 6.0760794 8.0540838 11.135836 13.11384 19.211775 23.462845 26.446243 33.331009 35.309013 37.287018 43.909508 46.641556 53.526325 56.258373 59.340126 62.345383 65.077431 71.962196 82.136353 85.119751 87.097755 93.982521 100.60501" y="0">Vi installerar framtiden</tspan></text>
  </g>
  <path d="m25.679 4.7613h1.1889v1.1014l-0.24659 0.0356-1.0724-0.21307-0.2212-0.0441v-0.87983h-0.22189v0.83573l-0.2212-0.0437v-0.79199h-0.22119v0.74789l-0.22154-0.0441v-0.70379h-0.22155v0.6597l-0.22154-0.0438v-0.61595h-0.22119v0.57185l-0.2988-0.0596v-1.7586l0.2988-0.0593v0.5715h0.22119v-0.6156l0.22154-0.0441v0.65969h0.22155v-0.70379l0.22154-0.0438v0.74754h0.22119v-0.79163l0.2212-0.0441v0.83573h0.22189v-0.87983l0.2212-0.0437 1.0724-0.21343 0.24659 0.0356v1.1014h-1.1889v0.36724zm2.8586-0.5849v-0.29916h-1.1381l-0.0804 0.29598h-1.4008l4e-3 0.22119-4e-3 0.22119h1.4008l0.0804 0.29598h1.1381v-0.58523zm0.84455 0h-0.73448v0.14993h0.73448zm0-0.29916h-0.73448v0.14958h0.73448zm0-0.29986h-0.73448v0.14993h0.73448zm-0.73448-0.14182h0.73448v-0.2921h-2.3985v0.88371h0.2219l0.0409-0.14993 0.0406-0.14993h1.2506v-0.29175zm0.73448 1.1765h-0.73448v-0.14993h0.73448zm0 0.2995h-0.73448v-0.14993h0.73448zm0 0.29951h-0.73448v-0.14958h0.73448zm-0.73448 0.14217h0.73448v0.29175h-2.3985v-0.88371h0.2219l0.0409 0.15028 0.0406 0.14993h1.2506v0.29175h0.11007" fill="#f60" fill-rule="evenodd"/>
 </g>
</svg>
